<svg width="31" height="30" viewBox="0 0 31 30" fill="none" xmlns="http://www.w3.org/2000/svg">
<path fill-rule="evenodd" clip-rule="evenodd" d="M12.3749 2.77527C13.2253 2.59246 14.0926 2.50028 14.9624 2.50027C18.4398 2.48326 21.7538 3.97397 24.0481 6.5871C26.3424 9.20024 27.3917 12.6794 26.9249 16.1253C26.1749 21.8753 20.4999 26.5253 14.6999 26.5253H6.37492C5.66726 26.5256 5.01145 26.1542 4.64774 25.5471C4.28403 24.9401 4.26587 24.1866 4.59992 23.5628L4.93742 22.9128C5.27332 22.2867 5.24949 21.529 4.87492 20.9253C2.77705 17.6273 2.41687 13.5142 3.9096 9.90179C5.40234 6.28937 8.56091 3.63033 12.3749 2.77527ZM14.5999 24.6378C19.6957 24.5574 24.0294 20.8981 24.9624 15.8878C25.3862 12.9841 24.5133 10.0408 22.5749 7.83777C20.6549 5.64061 17.8803 4.37861 14.9624 4.37527C14.2234 4.37668 13.4864 4.45205 12.7624 4.60027C9.54385 5.31639 6.87465 7.55311 5.60646 10.5967C4.33828 13.6404 4.62958 17.1106 6.38742 19.9003C7.13528 21.0751 7.18791 22.563 6.52492 23.7878L6.18742 24.4253C6.15994 24.467 6.15994 24.521 6.18742 24.5628C6.23742 24.6378 6.31242 24.6378 6.31242 24.6378H14.5999Z" fill="#828282"/>
</svg>
