<svg width="20" height="20" viewBox="0 0 20 20" fill="none" xmlns="http://www.w3.org/2000/svg">
<path d="M16.4916 12.4417C14.775 14.15 12.3166 14.675 10.1583 14L6.23331 17.9167C5.94998 18.2083 5.39165 18.3833 4.99165 18.325L3.17498 18.075C2.57498 17.9917 2.01665 17.425 1.92498 16.825L1.67498 15.0083C1.61665 14.6083 1.80831 14.05 2.08331 13.7667L5.99998 9.85C5.33331 7.68333 5.84998 5.225 7.56665 3.51666C10.025 1.05833 14.0166 1.05833 16.4833 3.51666C18.95 5.975 18.95 9.98333 16.4916 12.4417Z" stroke="#898989" stroke-width="1.5" stroke-miterlimit="10" stroke-linecap="round" stroke-linejoin="round"/>
<path d="M5.74164 14.575L7.6583 16.4917" stroke="#898989" stroke-width="1.5" stroke-miterlimit="10" stroke-linecap="round" stroke-linejoin="round"/>
<path d="M12.0833 9.16669C12.7737 9.16669 13.3333 8.60704 13.3333 7.91669C13.3333 7.22633 12.7737 6.66669 12.0833 6.66669C11.393 6.66669 10.8333 7.22633 10.8333 7.91669C10.8333 8.60704 11.393 9.16669 12.0833 9.16669Z" stroke="#898989" stroke-width="1.5" stroke-linecap="round" stroke-linejoin="round"/>
</svg>
