<svg width="24" height="24" viewBox="0 0 24 24" fill="none" xmlns="http://www.w3.org/2000/svg">
<path d="M11.9065 23C10.4735 23 9.19003 22.7409 8.05607 22.2226C6.92212 21.6911 6 20.9602 5.28972 20.0301C4.57944 19.0999 4.14953 18.0235 4 16.801H7.14019C7.27726 17.492 7.5514 18.09 7.96262 18.5949C8.37383 19.0999 8.90966 19.4919 9.57009 19.7709C10.243 20.0367 11.0156 20.1696 11.8879 20.1696C12.9221 20.1696 13.8069 19.9703 14.5421 19.5716C15.2897 19.173 15.8629 18.6082 16.2617 17.8773C16.6604 17.1332 16.8598 16.2495 16.8598 15.2263C16.8598 14.2031 16.6604 13.3261 16.2617 12.5952C15.8629 11.8511 15.2897 11.2797 14.5421 10.881C13.8069 10.4824 12.9221 10.2831 11.8879 10.2831C11.028 10.2831 10.2617 10.4226 9.58878 10.7016C8.92835 10.9674 8.39252 11.3528 7.98131 11.8577C7.57009 12.3494 7.28972 12.9474 7.14019 13.6516H4C4.14953 12.4158 4.57944 11.3395 5.28972 10.4226C6 9.49239 6.92212 8.76818 8.05607 8.24993C9.19003 7.7184 10.4735 7.45263 11.9065 7.45263C13.5265 7.45263 14.9408 7.7782 16.1495 8.42933C17.3583 9.08045 18.2991 9.99071 18.972 11.1601C19.6573 12.3162 20 13.6716 20 15.2263C20 16.7811 19.6573 18.1431 18.972 19.3125C18.2991 20.4686 17.3583 21.3722 16.1495 22.0233C14.9408 22.6744 13.5265 23 11.9065 23ZM18.2991 16.3824H9.53271V14.0702H18.2991V16.3824Z" fill="#B8D4E6"/>
<path d="M13.1821 2L11.0842 5.24211H13.7405L15.9568 2H13.1821Z" fill="#B8D4E6"/>
</svg>
