<svg width="16" height="20" viewBox="0 0 16 20" fill="none" xmlns="http://www.w3.org/2000/svg">
<path d="M15 5.5V14.5C15 18.1 14.125 19 10.625 19H5.375C1.875 19 1 18.1 1 14.5V5.5C1 1.9 1.875 1 5.375 1H10.625C14.125 1 15 1.9 15 5.5Z" stroke="#898989" stroke-width="1.5" stroke-linecap="round" stroke-linejoin="round"/>
<path d="M9.75 4.15002H6.25" stroke="#898989" stroke-width="1.5" stroke-linecap="round" stroke-linejoin="round"/>
<path d="M7.99999 16.39C8.74902 16.39 9.35624 15.7654 9.35624 14.995C9.35624 14.2245 8.74902 13.6 7.99999 13.6C7.25095 13.6 6.64374 14.2245 6.64374 14.995C6.64374 15.7654 7.25095 16.39 7.99999 16.39Z" stroke="#898989" stroke-width="1.5" stroke-linecap="round" stroke-linejoin="round"/>
</svg>
