<svg width="21" height="20" viewBox="0 0 21 20" fill="none" xmlns="http://www.w3.org/2000/svg">
<path d="M15.5 5.96651C15.45 5.95817 15.3917 5.95817 15.3417 5.96651C14.1917 5.92484 13.275 4.98317 13.275 3.81651C13.275 2.62484 14.2334 1.6665 15.425 1.6665C16.6167 1.6665 17.575 2.63317 17.575 3.81651C17.5667 4.98317 16.65 5.92484 15.5 5.96651Z" stroke="#0A0A0A" stroke-width="1.5" stroke-linecap="round" stroke-linejoin="round"/>
<path d="M14.6417 12.0333C15.7834 12.225 17.0417 12.025 17.925 11.4333C19.1 10.65 19.1 9.36664 17.925 8.58331C17.0334 7.99164 15.7584 7.79163 14.6167 7.99163" stroke="#0A0A0A" stroke-width="1.5" stroke-linecap="round" stroke-linejoin="round"/>
<path d="M5.47503 5.96651C5.52503 5.95817 5.58336 5.95817 5.63336 5.96651C6.78336 5.92484 7.70002 4.98317 7.70002 3.81651C7.70002 2.62484 6.74169 1.6665 5.55003 1.6665C4.35836 1.6665 3.40002 2.63317 3.40002 3.81651C3.40836 4.98317 4.32503 5.92484 5.47503 5.96651Z" stroke="#0A0A0A" stroke-width="1.5" stroke-linecap="round" stroke-linejoin="round"/>
<path d="M6.33334 12.0333C5.19168 12.225 3.93335 12.025 3.05001 11.4333C1.87501 10.65 1.87501 9.36664 3.05001 8.58331C3.94168 7.99164 5.21668 7.79163 6.35834 7.99163" stroke="#0A0A0A" stroke-width="1.5" stroke-linecap="round" stroke-linejoin="round"/>
<path d="M10.5 12.1916C10.45 12.1833 10.3916 12.1833 10.3416 12.1916C9.19163 12.1499 8.27496 11.2083 8.27496 10.0416C8.27496 8.84994 9.2333 7.8916 10.425 7.8916C11.6166 7.8916 12.575 8.85827 12.575 10.0416C12.5666 11.2083 11.65 12.1583 10.5 12.1916Z" stroke="#0A0A0A" stroke-width="1.5" stroke-linecap="round" stroke-linejoin="round"/>
<path d="M8.07498 14.8168C6.89998 15.6001 6.89998 16.8835 8.07498 17.6668C9.40831 18.5585 11.5916 18.5585 12.925 17.6668C14.1 16.8835 14.1 15.6001 12.925 14.8168C11.6 13.9335 9.40831 13.9335 8.07498 14.8168Z" stroke="#0A0A0A" stroke-width="1.5" stroke-linecap="round" stroke-linejoin="round"/>
</svg>
