<svg width="30" height="30" viewBox="0 0 30 30" fill="none" xmlns="http://www.w3.org/2000/svg">
<path fill-rule="evenodd" clip-rule="evenodd" d="M24.4752 20.8875L24.7752 22.3125C25.0595 23.5445 24.7788 24.8391 24.0098 25.8427C23.2408 26.8463 22.0638 27.4541 20.8002 27.5H9.20024C7.93671 27.4541 6.7597 26.8463 5.99067 25.8427C5.22165 24.8391 4.94095 23.5445 5.22524 22.3125L5.52524 20.8875C5.87028 18.9585 7.52852 17.5409 9.48774 17.5H20.5127C22.472 17.5409 24.1302 18.9585 24.4752 20.8875ZM20.8002 25.6125C21.435 25.6052 22.0323 25.3111 22.4252 24.8125V24.825C22.9074 24.2203 23.0952 23.4323 22.9377 22.675L22.6377 21.25C22.4713 20.194 21.581 19.4032 20.5127 19.3625H9.48774C8.41945 19.4032 7.5292 20.194 7.36274 21.25L7.06274 22.675C6.90919 23.4283 7.09682 24.2108 7.57524 24.8125C7.96816 25.3111 8.56551 25.6052 9.20024 25.6125H20.8002Z" fill="#828282"/>
<path fill-rule="evenodd" clip-rule="evenodd" d="M15.6252 15H14.3752C11.6138 15 9.37522 12.7614 9.37522 10V6.70002C9.37189 5.58509 9.81332 4.51487 10.6017 3.72649C11.3901 2.93811 12.4603 2.49669 13.5752 2.50002H16.4252C17.5401 2.49669 18.6104 2.93811 19.3988 3.72649C20.1871 4.51487 20.6286 5.58509 20.6252 6.70002V10C20.6252 12.7614 18.3866 15 15.6252 15ZM13.5752 4.37502C12.2912 4.37502 11.2502 5.41596 11.2502 6.70002V10C11.2502 11.7259 12.6493 13.125 14.3752 13.125H15.6252C17.3511 13.125 18.7502 11.7259 18.7502 10V6.70002C18.7502 6.08339 18.5053 5.49202 18.0692 5.056C17.6332 4.61997 17.0419 4.37502 16.4252 4.37502H13.5752Z" fill="#828282"/>
</svg>
