<svg width="30" height="30" viewBox="0 0 30 30" fill="none" xmlns="http://www.w3.org/2000/svg">
<path d="M20.525 9.93746C23.575 12.9875 23.575 17.9374 20.525 20.9874C17.475 24.0374 12.525 24.0374 9.475 20.9874C6.425 17.9374 6.425 12.9875 9.475 9.93746C12.525 6.88746 17.475 6.88746 20.525 9.93746Z" stroke="white" stroke-width="1.5" stroke-linecap="round" stroke-linejoin="round"/>
<path d="M10.3125 27.05C7.81249 26.05 5.62499 24.2375 4.17499 21.725C2.74999 19.2625 2.27499 16.525 2.61249 13.9125" stroke="white" stroke-width="1.5" stroke-linecap="round" stroke-linejoin="round"/>
<path d="M7.3125 5.59995C9.4375 3.93745 12.1 2.94995 15 2.94995C17.8375 2.94995 20.45 3.91244 22.55 5.51244" stroke="white" stroke-width="1.5" stroke-linecap="round" stroke-linejoin="round"/>
<path d="M19.6875 27.05C22.1875 26.05 24.375 24.2375 25.825 21.725C27.25 19.2625 27.725 16.525 27.3875 13.9125" stroke="white" stroke-width="1.5" stroke-linecap="round" stroke-linejoin="round"/>
</svg>
