<svg width="31" height="30" viewBox="0 0 31 30" fill="none" xmlns="http://www.w3.org/2000/svg">
<g clip-path="url(#clip0_322_297)">
<path d="M30.5 14.9998V14.9923C30.5 10.5535 28.5675 6.56726 25.4988 3.82601L25.4838 3.81351C25.4459 3.77265 25.4035 3.73617 25.3575 3.70476L25.355 3.70351C22.6295 1.31042 19.1245 -0.00606306 15.4975 0.00100488C11.7075 0.00100488 8.2475 1.4085 5.61 3.73101L5.62625 3.71726C5.59446 3.74137 5.56515 3.76859 5.53875 3.79851C3.95316 5.20249 2.684 6.92862 1.81533 8.86012C0.946657 10.7916 0.498316 12.8857 0.500005 15.0035C0.500005 19.441 2.43 23.4273 5.49625 26.1698L5.51125 26.1823C5.55096 26.2273 5.59538 26.2679 5.64375 26.3035L5.64626 26.3048C8.37105 28.6943 11.8734 30.0088 15.4975 30.0023C19.1386 30.0079 22.6559 28.6811 25.3863 26.2723L25.37 26.286C26.9831 24.8836 28.2761 23.151 29.1616 21.2056C30.0471 19.2602 30.5044 17.1472 30.5025 15.0098V15.001L30.5 14.9998ZM24.9225 24.756C24.1795 24.155 23.3804 23.6267 22.5363 23.1785L22.455 23.1385C23.2213 20.9298 23.6825 18.3835 23.7263 15.7348V15.7148H29.0525C28.8729 19.1415 27.3979 22.372 24.9263 24.7523L24.9225 24.756ZM16.215 22.8748C17.8188 22.961 19.3175 23.3135 20.7 23.8873L20.61 23.8548C19.5025 26.3798 17.9438 28.1148 16.215 28.496V22.8748ZM16.215 21.4448V15.7148H22.3C22.2517 18.0876 21.8403 20.439 21.08 22.6873L21.1288 22.5235C19.5768 21.8856 17.9262 21.5211 16.25 21.446L16.2163 21.4448H16.215ZM16.215 14.2848V8.55476C17.9365 8.47619 19.6312 8.09934 21.2238 7.44101L21.125 7.47726C21.8188 9.50101 22.245 11.8335 22.3 14.2585V14.2848H16.215ZM16.215 7.12475V1.50601C17.9438 1.88726 19.5025 3.61476 20.61 6.14726C19.3175 6.68476 17.8188 7.03601 16.2513 7.12351L16.215 7.12475ZM19.7825 2.12476C21.2554 2.61605 22.633 3.35683 23.855 4.31476L23.8263 4.29226C23.2725 4.72726 22.6513 5.13726 21.9963 5.49351L21.9263 5.5285C21.397 4.27941 20.6693 3.12409 19.7713 2.10725L19.7825 2.12101V2.12476ZM14.7825 1.50975V7.12475C13.2406 7.0461 11.7236 6.70364 10.2975 6.11226L10.3875 6.14475C11.5 3.61975 13.0563 1.88601 14.785 1.50475L14.7825 1.50975ZM9.0725 5.52476C8.39491 5.1602 7.74929 4.73912 7.1425 4.26601L7.1725 4.28851C8.35892 3.3587 9.6934 2.63525 11.12 2.1485L11.215 2.11976C10.3405 3.10905 9.62798 4.23039 9.10375 5.44226L9.0725 5.52476ZM14.785 8.5535V14.2835H8.7C8.755 11.8323 9.18125 9.49976 9.92375 7.31226L9.875 7.47601C11.4263 8.11284 13.076 8.47694 14.7513 8.55226L14.785 8.5535ZM14.785 15.7135V21.4435C13.0635 21.5221 11.3688 21.8989 9.77625 22.5573L9.875 22.521C9.18125 20.4985 8.755 18.1648 8.7 15.7398V15.7135H14.785ZM14.785 22.8735V28.4923C13.0563 28.111 11.4975 26.3835 10.39 23.851C11.6825 23.3135 13.1813 22.9635 14.7488 22.876L14.785 22.8735ZM11.2225 27.8735C9.74994 27.3837 8.37243 26.6446 7.15 25.6885L7.18 25.711C7.73375 25.276 8.355 24.866 9.01 24.5098L9.08 24.4748C9.60486 25.7244 10.3326 26.8787 11.2338 27.891L11.2225 27.8785V27.8735ZM21.9275 24.4735C22.6525 24.8673 23.2738 25.276 23.8575 25.7323L23.8275 25.7098C22.6411 26.6396 21.3066 27.363 19.88 27.8498L19.785 27.8785C20.6595 26.8897 21.372 25.7687 21.8963 24.5573L21.9275 24.476V24.4735ZM29.0525 14.2848H23.7263C23.6879 11.6984 23.2416 9.13439 22.4038 6.68726L22.455 6.85976C23.338 6.39483 24.174 5.84561 24.9513 5.21976L24.9213 5.24225C27.3878 7.61354 28.8633 10.8321 29.05 14.2485L29.0525 14.2848ZM6.0775 5.24351C6.7975 5.82851 7.60625 6.36476 8.46375 6.821L8.545 6.86101C7.77875 9.06976 7.3175 11.616 7.27376 14.2648V14.2848H1.94625C2.12587 10.858 3.60082 7.62751 6.0725 5.24726L6.0775 5.24351ZM1.9475 15.7148H7.27376C7.31207 18.3011 7.7584 20.8651 8.59626 23.3123L8.545 23.1398C7.60625 23.6385 6.79876 24.1748 6.04875 24.7798L6.07875 24.7573C3.61218 22.386 2.13671 19.1675 1.95 15.751L1.94875 15.716L1.9475 15.7148Z" fill="#828282"/>
</g>
<defs>
<clipPath id="clip0_322_297">
<rect width="30" height="30" fill="white" transform="translate(0.5)"/>
</clipPath>
</defs>
</svg>
